<svg id="Navigate_Icon" data-name="Navigate Icon" xmlns="http://www.w3.org/2000/svg" width="48" height="48" viewBox="0 0 48 48">
  <defs>
    <style>
      .cls-1, .cls-2 {
        fill: #555;
      }

      .cls-1 {
        fill-rule: evenodd;
      }
    </style>
  </defs>
  <path id="Ellipse_3_copy_4" data-name="Ellipse 3 copy 4" class="cls-1" d="M40,7c3.7,4.081,6.939,11.049,6.939,16.989a23,23,0,0,1-23,23C18.71,46.986,13.864,45.943,10,43c0-.211-1.98-1.032-3-3h3A21.234,21.234,0,0,0,45.129,23.989,20.933,20.933,0,0,0,40,10V7Z"/>
  <g id="Bubbles">
    <circle class="cls-2" cx="36.5" cy="5.5" r="1.5"/>
    <circle id="Ellipse_2_copy" data-name="Ellipse 2 copy" class="cls-2" cx="31.5" cy=






            "3.5" r="1.5"/>
    <circle id="Ellipse_2_copy_2" data-name="Ellipse 2 copy 2" class="cls-2" cx="25.5" cy="2.5" r="1.5"/>
    <circle id="Ellipse_2_copy_3" data-name="Ellipse 2 copy 3" class="cls-2" cx="5.5" cy="36.5" r="1.5"/>
    <circle id="Ellipse_2_copy_4" data-name="Ellipse 2 copy 4" class="cls-2" cx="3.5" cy="31.5" r="1.5"/>
    <circle id="Ellipse_2_copy_5" data-name="Ellipse 2 copy 5" class="cls-2" cx="2.5" cy="25.5" r="1.5"/>
  </g>
  <g id="Icon">
    <path id="arrow_1" data-name="arrow 1" class="cls-1" d="M27.585,29.307L18.6,20.322c-1.945-1.945-8.617-1.719-11.194.861C5.385,19.162,3.084,14.89,4,12a10.553,10.553,0,0,0-.9-8.9S6.447,5.53,12,4c3.263-.9,6.892,1.114,9.183,3.406-2.58,2.576-2.806,9.249-.861,11.194l8.985,8.985ZM16.017,16.017c-2.7-2.7-7.319-.431-7.319-0.431L8.267,8.267,15.586,8.7S13.314,13.314,16.017,16.017Z"/>
    <path id="Ellipse_3_copy" data-name="Ellipse 3 copy" class="cls-1" d="M30.5,26A4.5,4.5,0,1,1,26,30.5,4.5,4.5,0,0,1,30.5,26Zm0,2.562A1.937,1.937,0,1,1,28.563,30.5,1.937,1.937,0,0,1,30.5,28.563Z"/>
  </g>
</svg>
