<svg xmlns="http://www.w3.org/2000/svg" width="48" height="48" viewBox="0 0 48 48">
  <defs>
    <style>
      .cls-1 {
        fill: none;
        stroke: #555;
        stroke-width: 4px;
      }

      .cls-1, .cls-2 {
        fill-rule: evenodd;
      }

      .cls-2 {
        fill: #555;
      }
    </style>
  </defs>
  <path class="cls-1" d="M12,4H31c1.483,0,9,8.532,9,10V39.984C40,41.517,37.5,44,36,44H12.013A3.69,3.69,0,0,1,8,40V8C8,6.56,10.564,4,12,4Z"/>
  <path class="cls-1" d="M28,4v8.011C28,13.491,30.524,16,32.006,16H40"/>
  <path class="cls-2" d="M12,13c4.346,0,4.654-2.667,5-4,0.238,1.333.762,4,5,4v2a3.639,3.639,0,0,1-3,0c-0.95-.534-1.318-2-2-2s-1.05,1.467-2,2a3.639,3.639,0,0,1-3,0V13Z"/>
  <path id="Shape_2_copy" class="cls-2" d="M12,24c4.346,0,4.654-2.667,5-4,0.238,1.333.762,4,5,4v2a3.639,3.639,0,0,1-3,0c-0.95-.534-1.318-2-2-2s-1.05,1.467-2,2a3.639,3.639,0,0,1-3,0V24Z"/>
  <path id="Shape_2_copy_3" class="cls-2" d="M26,24c4.346,0,4.654-2.667,5-4,0.238,1.333.762,4,5,4v2a3.639,3.639,0,0,1-3,0c-0.95-.534-1.318-2-2-2s-1.05,1.467-2,2a3.639,3.639,0,0,1-3,0V24Z"/>
  <path id="Shape_2_copy_4" class="cls-2" d="M12,34c4.346,0,4.654-2.667,5-4,0.238,1.333.762,4,5,4v2a3.639,3.639,0,0,1-3,0c-0.95-.533-1.318-2-2-2s-1.05,1.467-2,2a3.639,3.639,0,0,1-3,0V34Z"/>
  <path id="Shape_2_copy_4-2" class="cls-2" d="M26,34c4.346,0,4.654-2.667,5-4,0.238,1.333.762,4,5,4v2a3.639,3.639,0,0,1-3,0c-0.95-.533-1.318-2-2-2s-1.05,1.467-2,2a3.639,3.639,0,0,1-3,0V34Z"/>
</svg>
