<svg xmlns="http://www.w3.org/2000/svg" width="48" height="48" viewBox="0 0 48 48">
  <defs>
    <style>
      .cls-1, .cls-2 {
        fill: none;
        stroke: #555;
        stroke-width: 4px;
      }

      .cls-2 {
        fill-rule: evenodd;
      }
    </style>
  </defs>
  <circle class="cls-1" cx="23.953" cy="24.031" r="20.859"/>
  <path class="cls-2" d="M38,9c-4.687-.065-2.582.129-7,0-1.912-.056-1.351,2.554-3.7,3.268C26.043,12.653,24.232,12,23,13a2.577,2.577,0,0,0-1,2,2.963,2.963,0,0,0,3,3c6.9-.3,10.844.313,18,0"/>
  <path class="cls-2" d="M5,22H15c4.29,0,4.318,5,0,5H5"/>
  <path class="cls-2" d="M39,39H25c-3.017,0-4-1.995-4-4,0-2.768,1.037-4,4-4H35a6.112,6.112,0,0,1,2-3,6.518,6.518,0,0,1,6-1"/>
</svg>
